<?xml version="1.0" encoding="iso-8859-1"?>
<!-- Generator: Adobe Illustrator 16.0.0, SVG Export Plug-In . SVG Version: 6.00 Build 0)  -->
<!DOCTYPE svg PUBLIC "-//W3C//DTD SVG 1.1//EN" "http://www.w3.org/Graphics/SVG/1.1/DTD/svg11.dtd">
<svg version="1.1" id="Capa_1" xmlns="http://www.w3.org/2000/svg" xmlns:xlink="http://www.w3.org/1999/xlink" x="0px" y="0px"
	 width="36px" height="36px" viewBox="0 0 612 612" style="enable-background:new 0 0 36 36;" xml:space="preserve">
<g>
	<g id="Cart">
		<g>
			<path d="M248.547,497.19c-31.661,0-57.357,25.696-57.357,57.356c0,31.661,25.696,57.357,57.357,57.357
				s57.357-25.696,57.357-57.357C305.904,522.887,280.208,497.19,248.547,497.19z M497.095,344.238H259.942L250.421,306h248.7
				c13.307,0,24.473-7.954,30.782-19.272l2.6,0.153L612,61.888l-8.68-0.535c5.009-6.462,8.488-14.187,8.488-23.02
				c0-21.107-17.131-38.238-38.238-38.238H95.595v5.85c-5.698-3.365-12.007-5.85-19.119-5.85H38.238C17.131,0.096,0,17.226,0,38.333
				s17.131,38.238,38.238,38.238h38.238c7.112,0,13.421-2.486,19.119-5.851v5.851h22.14l74.717,299.595
				c-0.344,2.142-1.262,4.091-1.262,6.31c0,21.107,17.13,38.237,38.238,38.237h267.667c21.107,0,38.238-17.13,38.238-38.237
				S518.202,344.238,497.095,344.238z M193.179,76.572h338.177l-54.03,152.952H231.34L193.179,76.572z M477.976,497.19
				c-31.661,0-57.357,25.696-57.357,57.356c0,31.661,25.696,57.357,57.357,57.357s57.357-25.696,57.357-57.357
				C535.333,522.887,509.637,497.19,477.976,497.19z" fill="#fff" />
		</g>
	</g>
</g>
<g>
</g>
<g>
</g>
<g>
</g>
<g>
</g>
<g>
</g>
<g>
</g>
<g>
</g>
<g>
</g>
<g>
</g>
<g>
</g>
<g>
</g>
<g>
</g>
<g>
</g>
<g>
</g>
<g>
</g>
</svg>
